<?xml version="1.0" encoding="UTF-8"?> <svg xmlns="http://www.w3.org/2000/svg" viewBox="0 0 1214.75 311.38"><defs><style>.cls-1{fill:#fff;}</style></defs><title>LOGO1</title><g id="Layer_2" data-name="Layer 2"><g id="Layer_1-2" data-name="Layer 1"><path class="cls-1" d="M1002.45,162.6c12.28,1.59,18.54-5.68,24.79-6.22,2.08.3,1.6-.82,4.47,1.51,10.62,8.85,23.47,7.15,32.85-3.15,3.39-5.09,3.91-12.28,8.42-14.77,13.47-5.36.55,22,12.62,23.28,10.88.22,7.76-6.71,12.56-18.36,2.1-9.7,12.89-24.72,12.16-14.63-2.78,11.1-4.11,41.94,11.82,30.73,6.45-10.46,5.66-28.64,17.87-34.71,5.08,10.29-12.29,37.54,7.58,37.51,1.73-.29,2.66-1.21,3.72-2.67,4.59-15.21,2-26.22,5.63-42.07-1.32-28.25-29.35,1.09-33.75,14.85.15-.49.31-1.05.47-1.63,5.12-13,4.18-32.05-12.87-22.9-6.07,4.5-9.61,13.49-15.12,18.7-4.28-1.09,3-13.27,1.88-17.48-5.37-7.68-14.87,1.68-15.65,7.87-1.74,4.68,0,10.21-6.36,10.79-6.58,1.57-6.15-16-13.55-18.21-9.71-6.71-24-2.7-30.72,6.78-4.38,6.06-6.56,21-8.4,25.07-2.15,4.08-2,4.9-9.53,7.92-6.49.38-14-2.87-15.85-7.29-5.35-6.1,3-26.44,11.63-22.63,1.71,2.74-.49,7.36-.12,10,.59,1.65,5,3.68,7.12,2,5.09-2.72,6.63-10.41,3.83-17.1-4.14-12.33-21.58-9.48-30.78,2.17C978.55,130.45,976.36,159.59,1002.45,162.6Zm120.44-27.66c0,.17-.08.34-.11.5C1122.8,135.31,1122.84,135.14,1122.89,134.94Zm-73.4-14.39c.59.11,1.8-.9,1,.77-1,6.85,4,13.92,7.3,18,.27,3.83-4.26,14.14-13,11.16C1032.83,142.54,1041.1,120.26,1049.49,120.55Zm-37.24,30.69-.83.32Z"></path><path class="cls-1" d="M1213.33,211.93c-2-11.09-16.9-12.51-27.31-6.6a10,10,0,0,0-1.88,15.9l.69.68c13.43,14.88,5.29,43.13-6,57.52a20.55,20.55,0,0,1-14.09,7.83c-15.61,1.54-21.5-10.84-12.23-45.54,6.22-25.49,16.71-54.82-6.81-56.94-6.5,1.21-7.78-6.35-12.68-8.67-25.93-2.75-51.88,16.24-63.9,34.36-12.22,18.76-17.79,45-13.35,69.91-.18,10.95-12.58,12.23-22.16,11.13-27.2-3-39.33-32.7-35.74-55,.69-13,17.4-45.11,32.46-30.27,3.55,9.34-8.38,23.92,5.44,28.13,25.72,4.47,26.9-38.53,16-47.8-9.36-12.73-32-13.91-48.77-5.49-24.52,11.57-36.08,38.2-37.23,63.85-2,8.92,4.38,28.35,6.08,32.05-2.45,13.54-18.92,14.22-21.26,1.71-5.6-19.47,6-65.09,9.62-82.58,8-26.42-21.25-27.93-29.59-12.46-9.68,27.7-16.94,55-11.19,94.37,2.13,7.72.74,15.72-10.46,19.84-35.85-5,25.2-93-7.77-112.36-25.62-14.57-54.2,15.05-63.63,37.94-3.45-13.73,6.43-32.85,1-46.14C807.1,165.55,803.2,206.36,801,223.68c.31,10.53-11.9,11.78-13.64,3.81-1.69-18.72-9.68-36.46-24.37-45.77-42.82-23.18-81.08,13.89-84.29,52.14-.09,1.08-.22,2.16-.38,3.23-2.43,16.4,3.4,30.87,5,48.81-2.27,10-16.73,11.53-21.42,3.4-7.06-28.09,32.07-98.32,1.4-112.21a20.47,20.47,0,0,0-11.11-1.59c-7.46,1-16.45,4.72-20.8,8.86-17.13,16.28-34,50.48-33.77,42,10.29-40.44-.66-66.52-30.11-46-7,4.85-11.88,10.11-17.26,16.67-10.12,12.34-18.91,30.28-22.13,34.78l0,0a1.15,1.15,0,0,1-2.06-.75c.81-16.84,15.05-44.07,9.62-53.09-7.31-12.15-25.55-1.79-31.15,8.24-7,11.15-9.65,28.3-10.72,42,.33,6.94-2.23,50.29-13.49,27.89-3.94-10.37,3-40.22,6.47-57.32a15.92,15.92,0,0,0-5.12-15.36C468,171.9,442.28,189.45,433,201c-8.74,7.63-19.55,37.12-21.8,33-2-24.13,29.13-67.11-10.07-55.83-23.94,8.3-18.83,110.81-26.33,117.65-15.11,5.21-16.94-15.59-12.44-28.38,3.37-15.19,5.2-23.67,9.22-45.47,10.25-59.29-12.69-28.88-23-40.37-3-5-7.18-7.57-12.19-7.57-37.36,4.44-64,28.86-70.37,72.83,1,24.88-15.36,40-24.91,34.9-6.2-2.3-6.83-15.37-6.72-27.16,0-43,14.61-65.82,30.52-100.77a55,55,0,0,1,3.82-7.35c3.05-4.65-4.65-8.22-8.7-11.52-34.55-20.68-51.08-15.91-69.23,17.1-26.74,45.15-27.69,107.62-38.26,94.75-.07-12,8.87-65.62,38.38-122.53,11.17-21.54,51.63-41.09,66.32-84.19,5.66-16.63-11.53-48.58-38.45-38C184.71,15.51,167.87,73,158.25,97.83c-1.76,6.91-11.11,7.22-17.17,9.24-35.83,10-100.89-16.46-95.82-59.74.21-5.38.36-9.61-1.72-12.6-3.61-6.19-22.58-4.6-32.22,3.11-34.07,23.3,17.05,71.44,44.15,86,34.3,18.39,72.62,11,73.68,11,6.51,0,20.25-6.66,14.86,3.74-13.84,45.2-47.77,130.28-17.46,153.58,8.67,8,20.73,13.08,30.25,9.8,7.67-2.65,24.73-70.59,48.33-120.2q1.44-3,3-6.15c24.76-43.59-32,76.65-.39,116.9a17.05,17.05,0,0,1,1.47,2.12c6,10.66,33.14,20,50.8,1,4.48-4.84,11.11-9.28,12.57-6.1,21.53,23.56,43.17,18.68,61.39-4,1.12-1.83,2.54-1.93,3.39,0,7.61,21,24.61,21.68,43.41,18.26,27.63,3.85,29.87,1.67,35.39-19.48,5.27-21.57,18.45-55.65,28.95-60.5,8.26-.64,6.28,9.11,6,17.54,0,9.48,1.83,16.26,5.51,21.41,9.42,12.56,23.84,7.72,38.5,6.77,5.14,22.71.2,48.66,30.34,32.56,11.9-15.32,10.06-38.23,17.71-55.08,5.47-11.07,8.77-25.22,20.73-28.76,6.33-2,1.75,12.33,2.16,15.68-1.35,14.61-4.41,32.64-3.51,45.67,4.4,33.92,30.12,36.53,36.21,7,4.8-20,24.84-74.43,38-66.9,7,8.48-15.77,50.11-4,72.51,14.1,22.22,47.88,15.73,60.33.89,3.35-3.29,7,3.05,11.39,5.8,8.59,6.09,18,7.77,27.78,7.11,27.32-2.33,40.11-19.86,49.59-45.62,2-7.82,16-26.24,15.58-9.45,1.09,21.42-14.5,62.27,23.69,55.53,3.4-.61,4-.95,6.4-3.4,5.24-5.87,6.24-15.57,8.57-22.64,6.56-19.48,14.26-40,29.36-54.24,12.66-6.37,9.63,7.12,7,21.61-3.31,17.86-8.56,28.77-6.2,39.51,6.16,24.17,45.43,27.19,61.44,11.12,33.2,23,49.67-12.62,59.38-2.91,23.83,21.56,49.65,12.83,75.85.23,25.11,14.85,36.82,13,58.21-5.63,4.08-2.11,7.17-1,10.12,4,.46.58.92,1.13,1.38,1.66h-.14a34.53,34.53,0,0,0,27.67,15.65c.17,0,.35,0,.53,0C1182.68,313.32,1222.81,265.66,1213.33,211.93ZM208.73,66.85c10.07-17.2,21.09-30,24.25-28.9,11.93,4.27-6.65,26.4-14.83,35.76C192.38,103.2,190.78,97.52,208.73,66.85Zm132,137.3C338,218.94,334.51,235,331.08,250c-4,15.38-14.07,36.57-30.85,20.49-4.33-14.94-.28-29.2,6-43.46,6.36-11.24,13.62-19.91,25.93-25C335.67,201.12,341.63,198,340.75,204.15ZM747.48,273c-40.87,35.14-51.18-55.61-16-71.27,12.95-3.81,8.14,19.23,14.61,26.38C756.21,244.15,769,252.45,747.48,273Zm372.1-20.44c-5.33,15.1-13.89,34-26.58,24.56a16.65,16.65,0,0,1-6.5-12.32c-.78-11.27,1.72-22.74,6.52-33.62,6.63-13.42,15-23.68,30-28.46C1138.42,200.75,1122.32,244.76,1119.58,252.52Z"></path><rect class="cls-1" x="934.31" y="132.35" width="29.51" height="29.51" rx="6.93"></rect></g></g></svg> 